<svg width="32" height="48" viewBox="0 0 32 48" fill="none" xmlns="http://www.w3.org/2000/svg">
<g clip-path="url(#clip0_21_253)">
<path d="M12.1072 12.2824C12.1072 11.132 12.366 6.76078 12.4235 5.32287C11.6758 5.38039 7.76471 5.72549 6.8732 5.75425V5.84052L10.7843 6.96209C10.8993 7.5085 11.8196 11.3908 12.0209 12.2824H12.1072ZM10.2379 20.8523C10.2379 17.8327 10.2667 14.7556 10.4105 11.7359H10.2954C9.97909 12.8575 9.66275 13.8928 9.40392 14.5542C8.59869 14.8706 6.8732 15.5033 6.3268 15.6471V15.7621L9.23137 16.5386C9.34641 16.9987 9.83529 19.4719 10.1516 20.8523H10.2379ZM13.5739 19.2993C13.3438 20.1908 12.4523 23.3542 12.2222 24.2745C11.2444 24.5621 8.68497 25.3098 6.64314 25.8562V25.9712C9.80654 26 11.6758 26 13.3726 26.0575C13.5163 23.2392 13.5739 22.1176 13.6889 19.2993H13.5739ZM5.40654 14.8993C5.40654 13.2601 5.78039 6.32941 5.83791 5.43791C5.14771 5.55294 3.99739 5.72549 3.59477 5.75425C3.39346 5.75425 2.93333 5.72549 2.32941 5.69673C1.75425 5.63921 1.00654 5.5817 0.172549 5.55294V5.63921C0.833987 5.89804 2.21438 6.41568 2.73203 6.61699C2.76078 7.88235 2.90458 14.2379 2.90458 14.8993C2.90458 15.6183 2.64575 23.9869 2.58824 25.0797C2.15686 25.2523 1.03529 25.7412 0.460131 25.9425V26.0288C1.2366 26 3.99739 25.8562 4.45752 25.8275C4.65882 25.8562 5.23399 25.9425 5.69412 25.9712C5.66536 24.8209 5.40654 17.085 5.40654 14.8993Z" fill="#64FFDA"/>
<path d="M21.937 22.6274C23.3174 23.03 25.6468 23.6914 26.3946 23.8927C26.4808 26.5385 26.6534 29.5581 26.5671 32.2326C26.4521 34.9646 26.5671 41.6078 23.3174 42.9594V43.0744C27.6312 43.2757 28.9253 39.2496 29.1266 34.447C29.2704 30.996 29.2991 27.8326 29.3566 23.7489C29.7593 23.4614 30.3632 22.9437 30.9383 22.5123V22.4548C30.1331 22.5411 28.4364 22.7137 28.005 22.7424C26.6821 22.7424 23.4325 22.6274 21.937 22.5123V22.6274ZM19.3488 43.7934L20.3553 43.362L22.5697 43.0744V42.9594C22.0808 42.7869 21.3906 42.5568 20.9305 42.3555C20.8155 41.8091 20.154 37.8692 19.7802 35.8561H19.6939L19.3488 43.7934Z" fill="#64FFDA"/>
<path d="M28.5905 4.51164L4.69914 42.6067L5.4252 43.0818L31.1253 6.57654C30.5419 6.35709 30.1361 6.08046 29.6664 5.83949L28.5905 4.51164Z" fill="#64FFDA"/>
</g>
<defs>
<clipPath id="clip0_21_253">
<rect width="32" height="48" fill="white"/>
</clipPath>
</defs>
</svg>
