<svg width="1266" height="440" viewBox="0 0 1266 440" fill="none" xmlns="http://www.w3.org/2000/svg">
<path d="M105.25 86.75C105.25 76.75 107.5 38.75 108 26.25C101.5 26.75 67.5 29.75 59.75 30V30.75L93.75 40.5C94.75 45.25 102.75 79 104.5 86.75H105.25ZM89 161.25C89 135 89.25 108.25 90.5 82H89.5C86.75 91.75 84 100.75 81.75 106.5C74.75 109.25 59.75 114.75 55 116V117L80.25 123.75C81.25 127.75 85.5 149.25 88.25 161.25H89ZM118 147.75C116 155.5 108.25 183 106.25 191C97.75 193.5 75.5 200 57.75 204.75V205.75C85.25 206 101.5 206 116.25 206.5C117.5 182 118 172.25 119 147.75H118ZM47 109.5C47 95.25 50.25 35 50.75 27.25C44.75 28.25 34.75 29.75 31.25 30C29.5 30 25.5 29.75 20.25 29.5C15.25 29 8.75 28.5 1.5 28.25V29C7.25 31.25 19.25 35.75 23.75 37.5C24 48.5 25.25 103.75 25.25 109.5C25.25 115.75 23 188.5 22.5 198C18.75 199.5 9 203.75 4 205.5V206.25C10.75 206 34.75 204.75 38.75 204.5C40.5 204.75 45.5 205.5 49.5 205.75C49.25 195.75 47 128.5 47 109.5Z" fill="#3B82F6"/>
<path d="M211.5 196.75C223.5 200.25 243.75 206 250.25 207.75C251 230.75 252.5 257 251.75 280.25C250.75 304 251.75 361.75 223.5 373.5V374.5C261 376.25 272.25 341.25 274 299.5C275.25 269.5 275.5 242 276 206.5C279.5 204 284.75 199.5 289.75 195.75V195.25C282.75 196 268 197.5 264.25 197.75C252.75 197.75 224.5 196.75 211.5 195.75V196.75ZM189 380.75L197.75 377L217 374.5V373.5C212.75 372 206.75 370 202.75 368.25C201.75 363.5 196 329.25 192.75 311.75H192L189 380.75Z" fill="#3B82F6"/>
<path d="M257.732 30.1725L50.0398 361.339L56.3516 365.47L279.767 48.1231C274.695 46.2154 271.168 43.8106 267.085 41.7158L257.732 30.1725Z" fill="#3B82F6"/>
<path d="M485.15 107.45C485.15 101.45 486.5 78.65 486.8 71.15C482.9 71.45 462.5 73.25 457.85 73.4V73.85C466.4 76.1 476 79.1 478.25 79.7C478.85 82.55 483.65 102.8 484.7 107.45H485.15ZM475.55 152.15C475.55 142.1 476.3 114.5 476.45 104.6H476C474.2 110.3 472.4 115.85 471.2 119.45C467.3 120.95 456.95 124.25 454.4 125V125.6C460.1 126.95 466.85 128.6 470.3 129.35C470.9 131.9 473.75 144.95 475.1 152.15H475.55ZM450.2 121.1C450.2 114.5 452.15 76.4 452.45 71.75C449 72.35 442.85 73.25 440.75 73.4C436.1 73.25 427.25 72.65 422 72.35V72.8C426.35 74.45 431.6 76.55 436.25 77.9C436.4 84.5 437.15 115.1 437.15 121.1C437.15 128.3 435.8 168.5 435.5 174.2C433.1 175.4 428.75 177.2 425.9 178.7V179.15C429.8 179 442.85 178.25 445.25 178.1C451.1 178.7 459.65 179.15 466.7 179.45V179C461.45 177.05 454.85 174.65 451.55 173.3C451.1 160.7 450.2 128.3 450.2 121.1ZM543.351 176C526.701 176.15 516.051 165.65 516.051 121.1C516.051 119.15 516.651 95.3 520.101 72.65C516.801 73.4 513.651 74.15 511.101 74.45C508.551 74.45 498.051 74.3 490.701 74.3V74.75C495.201 76.55 501.651 79.1 504.501 80C502.701 97.25 502.251 117.2 502.251 121.1C502.251 144.65 502.851 164.9 513.951 174.65C517.701 177.95 523.401 180.05 528.951 180.05C534.951 180.05 540.501 178.85 543.351 176.75V176ZM550.701 121.1C550.701 124.55 549.201 177.05 549.051 179.45C550.701 179.15 554.451 178.25 556.251 177.8C560.001 177.95 573.201 178.7 578.901 179V178.55C575.601 176.9 567.651 173.45 564.501 172.25C564.351 164.6 563.751 123.65 563.751 121.1C563.751 118.55 565.851 74.9 566.001 70.4C563.901 71.15 561.201 71.75 560.301 72.05C557.451 72.05 540.651 72.35 536.001 72.05V72.5C538.701 73.4 547.101 75.95 550.101 76.85C550.251 83.45 550.701 117.8 550.701 121.1ZM647.135 140.9C645.635 146.75 639.785 168.5 639.035 171.05C635.885 172.1 617.585 177.2 613.535 178.25V178.85C617.735 179 642.635 179.45 645.185 179.45C645.485 175.4 647.585 142.7 647.585 140.9H647.135ZM578.885 69.05C581.885 69.95 590.585 73.1 593.135 73.85C593.285 80.45 594.785 115.85 594.785 121.1C594.785 130.4 593.885 167.75 593.885 172.7C591.635 173.9 585.185 177.05 581.885 178.7V179.15C586.685 179 600.485 178.55 602.135 178.55C603.635 178.7 606.935 179 609.185 179.15C608.885 173.6 607.985 126.35 607.985 120.95C607.985 117.2 609.635 73.7 610.085 67.7L597.635 69.2C592.685 69.05 584.585 68.75 578.885 68.3V69.05ZM718.18 140.9C716.68 146.75 710.83 168.5 710.08 171.05C706.93 172.1 688.63 177.2 684.58 178.25V178.85C688.78 179 713.68 179.45 716.23 179.45C716.53 175.4 718.63 142.7 718.63 140.9H718.18ZM649.93 69.05C652.93 69.95 661.63 73.1 664.18 73.85C664.33 80.45 665.83 115.85 665.83 121.1C665.83 130.4 664.93 167.75 664.93 172.7C662.68 173.9 656.23 177.05 652.93 178.7V179.15C657.73 179 671.53 178.55 673.18 178.55C674.68 178.7 677.98 179 680.23 179.15C679.93 173.6 679.03 126.35 679.03 120.95C679.03 117.2 680.68 73.7 681.13 67.7L668.68 69.2C663.73 69.05 655.63 68.75 649.93 68.3V69.05ZM771.375 99.65L774.225 66.05L767.325 69.2C765.225 69.8 755.025 71.6 750.225 72.5L750.375 73.1L765.825 75.65L770.925 99.65H771.375ZM746.325 74.15C738.075 77 727.275 83.6 727.275 99.2C727.275 114.2 744.225 127.85 748.425 131.6C751.275 134.15 763.125 144.05 763.125 158.45C763.125 167.15 759.825 173.9 751.575 177.5V177.95C771.675 176 776.025 158.15 776.025 148.7C776.025 137.3 770.325 130.1 761.925 122C747.525 108.05 739.275 101 739.275 91.7C739.275 84.05 742.575 78.8 746.325 74.6V74.15ZM723.825 185.6L728.925 182.15L748.275 179V178.55L731.775 175.4L724.875 147.8H724.275L723.825 185.6ZM782.544 104.75C784.944 96.65 788.244 85.25 790.494 77.6C792.594 76.85 799.944 74.6 804.444 73.25V72.65C799.944 72.5 792.444 72.2 787.344 71.75C786.294 71.3 783.594 70.1 782.094 69.35C782.094 73.25 782.394 91.7 781.944 104.75H782.544ZM823.794 121.1C823.794 117.95 825.894 76.7 826.044 72.05C822.144 72.35 819.894 72.5 819.294 72.5H809.694C809.844 77.6 810.144 117.35 810.144 121.1C810.144 123.95 808.794 167.75 808.644 173.3C806.394 174.65 801.444 177.2 798.894 178.7V179.15C803.844 179 815.544 178.25 818.544 178.1C821.694 178.25 830.994 178.85 839.994 179.75V179.15C835.644 177.2 827.094 174.2 824.244 173.15C824.094 165.5 823.794 124.55 823.794 121.1ZM845.544 77.45C847.044 83 850.494 96.2 852.744 104.6H853.344C853.344 90.8 853.494 73.1 853.494 69.35C852.144 70.1 848.994 71.45 847.644 72.05C841.944 72.35 836.244 72.5 830.544 72.65V73.25L845.544 77.45ZM920.118 182L920.268 145.25H919.818C917.568 155.15 915.318 165.05 912.618 175.1C910.368 176 908.118 176.9 905.718 177.65V178.1L916.218 179.75L920.118 182ZM859.218 127.85C859.218 160.25 876.318 179 897.018 179C898.368 179 900.318 178.85 901.518 178.7V178.1C882.018 175.4 875.268 148.1 875.268 127.85C875.268 106.85 882.468 76.1 901.968 72.05V71.45C873.768 72.35 859.218 99.8 859.218 127.85ZM919.968 109.1L922.218 65L917.868 68.75C914.118 69.95 909.918 71 906.018 72.05V72.35L914.268 75.05C916.218 86.3 917.868 97.55 919.668 109.1H919.968ZM958.735 124.4C963.685 130.1 1005.99 185.6 1009.44 189.95L1010.64 188.6C1006.89 181.25 977.935 123.8 971.335 110.9C976.735 104.75 996.685 81.05 999.685 77.45C1000.89 76.55 1004.19 74.15 1006.44 72.5V72.05C1001.94 72.5 996.835 72.8 996.085 72.8C994.435 72.8 977.485 72.2 974.185 72.05V72.65C980.035 74.45 984.085 75.65 988.735 76.85C986.635 80.3 963.535 117.2 958.735 123.8V124.4ZM926.935 72.8C929.935 73.4 938.485 76.7 941.335 77.6C941.635 83.45 941.935 117.65 941.935 121.1C941.935 125.45 940.585 168.05 940.285 174.2C938.335 175.1 933.685 177.2 930.685 178.7V179.15C935.485 179 948.385 178.1 950.035 178.1C953.185 178.25 960.535 178.85 969.385 179.75V179.15C965.185 177.5 958.735 174.65 956.035 173.3C955.885 166.25 954.985 127.25 954.985 120.95C954.985 116.3 956.785 75.65 957.085 70.55C953.635 71.45 950.935 72.2 950.035 72.35C946.135 72.5 933.985 72.5 926.935 72.2V72.8ZM499.85 304.25C499.85 286.25 494.15 267.8 480.8 258.2C474.05 253.4 463.7 250.7 456.5 251.45V252.05C474.5 256.85 484.1 278.3 484.1 304.7C484.1 335.9 473.75 355.4 457.1 358.1V358.7C458.9 359 460.7 359.15 462.35 359.15C470 359.15 478.1 356.15 483.2 351.05C495.05 339.2 499.85 322.25 499.85 304.25ZM444.8 357.95L451.25 358.7C450.65 346.7 449.45 308 449.45 301.1C449.45 296.15 451.1 269 452 251C448.4 251.45 441.95 252.5 440.3 252.65L422.3 251.6V252.35C426.8 253.85 431.15 255.65 435.8 257.15C435.95 263.75 436.55 294.65 436.55 301.1C436.55 307.25 435.5 338.15 435.05 353.9C432.5 355.1 428.6 357.05 425.3 358.55V359L444.8 357.95ZM566.009 287.45C566.009 281.45 567.359 258.65 567.659 251.15C563.759 251.45 543.359 253.25 538.709 253.4V253.85L559.109 259.7C559.709 262.55 564.509 282.8 565.559 287.45H566.009ZM556.259 332.15C556.259 316.4 556.409 300.35 557.159 284.6H556.559C554.909 290.45 553.259 295.85 551.909 299.3C547.709 300.95 538.709 304.25 535.859 305V305.6L551.009 309.65C551.609 312.05 554.159 324.95 555.809 332.15H556.259ZM573.659 324.05C572.459 328.7 567.809 345.2 566.609 350C561.509 351.5 548.159 355.4 537.509 358.25V358.85C554.009 359 563.759 359 572.609 359.3C573.359 344.6 573.659 338.75 574.259 324.05H573.659ZM531.059 301.1C531.059 292.55 533.009 256.4 533.309 251.75C529.709 252.35 523.709 253.25 521.609 253.4C520.559 253.4 518.159 253.25 515.009 253.1C512.009 252.8 508.109 252.5 503.759 252.35V252.8C507.209 254.15 514.409 256.85 517.109 257.9C517.259 264.5 518.009 297.65 518.009 301.1C518.009 304.85 516.659 348.5 516.359 354.2C514.109 355.1 508.259 357.65 505.259 358.7V359.15C509.309 359 523.709 358.25 526.109 358.1C527.159 358.25 530.159 358.7 532.559 358.85C532.409 352.85 531.059 312.5 531.059 301.1ZM624.823 332H624.973C627.523 325.1 650.173 260.45 652.723 253.7L655.573 249.2C652.573 249.5 648.673 249.95 646.723 250.1C645.523 250.1 632.923 249.8 630.223 249.5V250.1C633.523 251.3 637.423 253.25 640.423 254.3C638.173 264.5 625.573 323.75 624.073 329.3L624.823 332ZM612.973 363.2C616.273 355.55 619.423 347.45 621.673 341.9C619.723 335.3 611.173 305.45 609.973 301.1C607.723 292.7 600.823 264.5 599.173 258.2C601.273 257.15 606.523 254.45 608.923 253.1V252.5C604.423 253.1 595.423 253.4 592.423 253.4C591.223 253.4 587.473 253.25 583.423 253.1C579.373 252.8 575.173 252.65 573.073 252.5V253.1C576.373 254.45 580.723 256.7 582.673 257.75C583.573 260.3 594.523 296.15 596.023 301.1C599.023 311.45 610.723 355.55 612.523 363.2H612.973ZM719.086 287.45C719.086 281.45 720.436 258.65 720.736 251.15C716.836 251.45 696.436 253.25 691.786 253.4V253.85L712.186 259.7C712.786 262.55 717.586 282.8 718.636 287.45H719.086ZM709.336 332.15C709.336 316.4 709.486 300.35 710.236 284.6H709.636C707.986 290.45 706.336 295.85 704.986 299.3C700.786 300.95 691.786 304.25 688.936 305V305.6L704.086 309.65C704.686 312.05 707.236 324.95 708.886 332.15H709.336ZM726.736 324.05C725.536 328.7 720.886 345.2 719.686 350C714.586 351.5 701.236 355.4 690.586 358.25V358.85C707.086 359 716.836 359 725.686 359.3C726.436 344.6 726.736 338.75 727.336 324.05H726.736ZM684.136 301.1C684.136 292.55 686.086 256.4 686.386 251.75C682.786 252.35 676.786 253.25 674.686 253.4C673.636 253.4 671.236 253.25 668.086 253.1C665.086 252.8 661.186 252.5 656.836 252.35V252.8C660.286 254.15 667.486 256.85 670.186 257.9C670.336 264.5 671.086 297.65 671.086 301.1C671.086 304.85 669.736 348.5 669.436 354.2C667.186 355.1 661.336 357.65 658.336 358.7V359.15C662.386 359 676.786 358.25 679.186 358.1C680.236 358.25 683.236 358.7 685.636 358.85C685.486 352.85 684.136 312.5 684.136 301.1ZM798.6 320.9C797.1 326.75 791.25 348.5 790.5 351.05C787.35 352.1 769.05 357.2 765 358.25V358.85C769.2 359 794.1 359.45 796.65 359.45C796.95 355.4 799.05 322.7 799.05 320.9H798.6ZM730.35 249.05C733.35 249.95 742.05 253.1 744.6 253.85C744.75 260.45 746.25 295.85 746.25 301.1C746.25 310.4 745.35 347.75 745.35 352.7C743.1 353.9 736.65 357.05 733.35 358.7V359.15C738.15 359 751.95 358.55 753.6 358.55C755.1 358.7 758.4 359 760.65 359.15C760.35 353.6 759.45 306.35 759.45 300.95C759.45 297.2 761.1 253.7 761.55 247.7L749.1 249.2C744.15 249.05 736.05 248.75 730.35 248.3V249.05ZM843.845 359.45C870.995 353.75 876.245 321.2 876.245 299.6C876.245 277.85 867.545 247.7 840.845 247.7H838.445L838.295 248.3C859.895 252.8 860.345 284.9 860.345 302.3C860.345 328.85 856.745 350.3 843.845 358.85V359.45ZM841.295 361.4C825.095 355.85 821.945 327.35 821.945 303.2C821.945 290.9 823.595 255.65 834.395 250.7V250.1C813.545 253.55 806.045 281.45 806.045 306.8C806.045 329.3 811.895 361.4 840.995 362.15L841.295 361.4ZM913.971 306.95C916.071 308 918.471 308.3 920.871 308.3C933.171 308.3 947.571 296.9 947.571 278.15C947.571 260.9 934.971 251.6 921.621 251.6C919.521 251.6 917.421 251.75 915.471 252.2V253.1C929.271 254.3 932.871 266.75 932.871 279.2C932.871 290.3 926.271 305.6 913.971 306.35V306.95ZM879.621 252.35C882.771 253.4 891.021 256.4 893.721 257.15C893.871 263.75 894.621 298.4 894.621 301.1C894.621 303.65 893.271 348.8 892.971 354.35C890.571 355.4 886.371 357.2 883.371 358.7V359.15C888.171 359 900.021 358.25 902.721 358.25L923.871 359.45V359C919.521 357.5 911.271 354.35 908.721 353.3C908.571 345.65 907.671 303.5 907.671 301.1C907.671 298.55 909.621 255.5 909.921 251C906.621 251.45 901.971 252.35 898.221 252.65C897.621 252.65 895.371 252.65 892.071 252.5C888.771 252.35 884.421 252.05 879.621 251.75V252.35ZM1012.49 287.45C1012.49 281.45 1013.84 258.65 1014.14 251.15C1010.24 251.45 989.844 253.25 985.194 253.4V253.85L1005.59 259.7C1006.19 262.55 1010.99 282.8 1012.04 287.45H1012.49ZM1002.74 332.15C1002.74 316.4 1002.89 300.35 1003.64 284.6H1003.04C1001.39 290.45 999.744 295.85 998.394 299.3C994.194 300.95 985.194 304.25 982.344 305V305.6L997.494 309.65C998.094 312.05 1000.64 324.95 1002.29 332.15H1002.74ZM1020.14 324.05C1018.94 328.7 1014.29 345.2 1013.09 350C1007.99 351.5 994.644 355.4 983.994 358.25V358.85C1000.49 359 1010.24 359 1019.09 359.3C1019.84 344.6 1020.14 338.75 1020.74 324.05H1020.14ZM977.544 301.1C977.544 292.55 979.494 256.4 979.794 251.75C976.194 252.35 970.194 253.25 968.094 253.4C967.044 253.4 964.644 253.25 961.494 253.1C958.494 252.8 954.594 252.5 950.244 252.35V252.8C953.694 254.15 960.894 256.85 963.594 257.9C963.744 264.5 964.494 297.65 964.494 301.1C964.494 304.85 963.144 348.5 962.844 354.2C960.594 355.1 954.744 357.65 951.744 358.7V359.15C955.794 359 970.194 358.25 972.594 358.1C973.644 358.25 976.644 358.7 979.044 358.85C978.894 352.85 977.544 312.5 977.544 301.1ZM1051.96 299.9L1054.21 251.15C1050.31 251.75 1045.66 252.5 1042.06 252.65C1041.01 252.65 1030.36 252.2 1023.76 251.75V252.65C1026.76 253.4 1035.31 256.55 1038.01 257.45C1038.16 263.3 1038.91 298.25 1038.91 301.1C1038.91 303.95 1037.56 347.9 1037.26 353.9L1027.66 358.7V359.15C1032.46 359 1044.16 358.25 1047.01 358.1C1050.16 358.25 1062.46 359.3 1067.26 359.75V359.15L1053.01 353.3L1051.96 299.9ZM1057.36 307.55C1066.06 318.65 1097.41 361.55 1102.96 368.15L1104.31 367.25C1101.16 360.2 1077.01 309.2 1074.01 302.3C1081.06 300.2 1091.86 292.85 1091.86 276.05C1091.86 263.6 1081.66 252.05 1065.16 252.05C1063.21 252.05 1061.41 252.2 1059.61 252.5V253.1C1074.16 254.3 1076.71 266.75 1076.71 276.65C1076.71 290.9 1069.66 302.9 1057.36 306.95V307.55Z" fill="#3B82F6"/>
</svg>
