<svg width="330" height="298" viewBox="0 0 330 298" fill="none" xmlns="http://www.w3.org/2000/svg">
<path d="M105.25 83.75C105.25 73.75 107.5 35.75 108 23.25C101.5 23.75 67.5 26.75 59.75 27V27.75L93.75 37.5C94.75 42.25 102.75 76 104.5 83.75H105.25ZM89 158.25C89 132 89.25 105.25 90.5 79H89.5C86.75 88.75 84 97.75 81.75 103.5C74.75 106.25 59.75 111.75 55 113V114L80.25 120.75C81.25 124.75 85.5 146.25 88.25 158.25H89ZM118 144.75C116 152.5 108.25 180 106.25 188C97.75 190.5 75.5 197 57.75 201.75V202.75C85.25 203 101.5 203 116.25 203.5C117.5 179 118 169.25 119 144.75H118ZM47 106.5C47 92.25 50.25 32 50.75 24.25C44.75 25.25 34.75 26.75 31.25 27C29.5 27 25.5 26.75 20.25 26.5C15.25 26 8.75 25.5 1.5 25.25V26C7.25 28.25 19.25 32.75 23.75 34.5C24 45.5 25.25 100.75 25.25 106.5C25.25 112.75 23 185.5 22.5 195C18.75 196.5 9 200.75 4 202.5V203.25C10.75 203 34.75 201.75 38.75 201.5C40.5 201.75 45.5 202.5 49.5 202.75C49.25 192.75 47 125.5 47 106.5ZM186.773 13.25L126.023 221.75L130.023 223L201.273 19.5C198.273 19.25 196.023 18.5 193.523 18L186.773 13.25ZM239.635 24.75C251.635 28.25 271.885 34 278.385 35.75C279.135 58.75 280.635 85 279.885 108.25C278.885 132 279.885 189.75 251.635 201.5V202.5C289.135 204.25 300.385 169.25 302.135 127.5C303.385 97.5 303.635 70 304.135 34.5C307.635 32 312.885 27.5 317.885 23.75V23.25C310.885 24 296.135 25.5 292.385 25.75C280.885 25.75 252.635 24.75 239.635 23.75V24.75ZM217.135 208.75L225.885 205L245.135 202.5V201.5C240.885 200 234.885 198 230.885 196.25C229.885 191.5 224.135 157.25 220.885 139.75H220.135L217.135 208.75Z" fill="#3B82F6"/>
</svg>
