<svg width="278" height="97" viewBox="0 0 278 97" fill="none" xmlns="http://www.w3.org/2000/svg">
<path d="M23.057 19.4095C23.057 17.2188 23.5499 8.89424 23.6594 6.15588C22.2355 6.26542 14.7871 6.92262 13.0893 6.97739V7.14169L20.5377 9.27761C20.7567 10.3182 22.5093 17.7117 22.8927 19.4095H23.057ZM19.4971 35.7301C19.4971 29.9796 19.5519 24.1195 19.8257 18.369H19.6066C19.0042 20.5049 18.4018 22.4765 17.9089 23.7361C16.3754 24.3386 13.0893 25.5434 12.0488 25.8173V26.0363L17.5802 27.5151C17.7993 28.3913 18.7304 33.1013 19.3328 35.7301H19.4971ZM25.8501 32.7727C25.4119 34.4705 23.7142 40.4949 23.276 42.2474C21.4139 42.7951 16.5397 44.219 12.6512 45.2596V45.4787C18.6756 45.5334 22.2355 45.5334 25.4667 45.643C25.7406 40.2758 25.8501 38.1399 26.0692 32.7727H25.8501ZM10.2962 24.3933C10.2962 21.2716 11.0082 8.07273 11.1177 6.37495C9.80332 6.59402 7.61263 6.92262 6.84589 6.97739C6.46252 6.97739 5.58625 6.92262 4.43614 6.86785C3.3408 6.75832 1.91685 6.64878 0.328603 6.59402V6.75832C1.58825 7.25122 4.21707 8.23703 5.20288 8.6204C5.25764 11.0302 5.53148 23.1337 5.53148 24.3933C5.53148 25.7625 5.03858 41.6997 4.92904 43.7809C4.10753 44.1095 1.97162 45.0405 0.876274 45.4239V45.5882C2.35499 45.5334 7.61263 45.2596 8.4889 45.2048C8.87227 45.2596 9.96762 45.4239 10.8439 45.4787C10.7891 43.288 10.2962 28.5556 10.2962 24.3933Z" fill="#00C4CC"/>
<path d="M46.333 43.0973C48.9618 43.864 53.398 45.1237 54.8219 45.507C54.9862 50.5456 55.3148 56.2962 55.1505 61.3895C54.9315 66.5924 55.1505 79.2436 48.9618 81.8176V82.0367C57.1769 82.4201 59.6414 74.7527 60.0248 65.6066C60.2986 59.0345 60.3534 53.0101 60.4629 45.2332C61.2297 44.6855 62.3798 43.6997 63.4751 42.8782V42.7687C61.9417 42.933 58.7104 43.2616 57.8889 43.3163C55.3696 43.3163 49.1809 43.0973 46.333 42.8782V43.0973ZM41.404 83.4059L43.3208 82.5844L47.5379 82.0367V81.8176C46.6069 81.489 45.2925 81.0509 44.4162 80.6675C44.1971 79.627 42.9375 72.1239 42.2255 68.2902H42.0612L41.404 83.4059Z" fill="#00C4CC"/>
<path d="M56.348 7.02563L10.8492 79.5739L12.2319 80.4788L61.1752 10.958C60.0641 10.5401 59.2914 10.0133 58.3969 9.55441L56.348 7.02563Z" fill="#00C4CC"/>
<path d="M106.281 23.3256C106.281 22.0112 106.577 17.0165 106.643 15.3735C105.788 15.4392 101.319 15.8335 100.301 15.8664V15.9649C102.174 16.4578 104.277 17.1151 104.77 17.2465C104.901 17.8708 105.952 22.307 106.182 23.3256H106.281ZM104.178 33.118C104.178 30.9164 104.342 24.8701 104.375 22.7013H104.277C103.882 23.95 103.488 25.1658 103.225 25.9545C102.371 26.2831 100.103 27.006 99.5447 27.1703V27.3017C100.793 27.5975 102.272 27.9589 103.028 28.1232C103.159 28.6819 103.784 31.5407 104.079 33.118H104.178ZM98.6246 26.3159C98.6246 24.8701 99.0518 16.5236 99.1175 15.5049C98.3617 15.6363 97.0145 15.8335 96.5544 15.8664C95.5358 15.8335 93.597 15.7021 92.4469 15.6363V15.7349C93.3998 16.0964 94.55 16.5564 95.5686 16.8522C95.6015 18.298 95.7658 25.0015 95.7658 26.3159C95.7658 27.8932 95.47 36.6998 95.4043 37.9485C94.8786 38.2114 93.9256 38.6057 93.3013 38.9343V39.0329C94.1556 39 97.0145 38.8357 97.5402 38.8028C98.8218 38.9343 100.695 39.0329 102.239 39.0986V39C101.089 38.5728 99.6433 38.0471 98.9204 37.7513C98.8218 34.991 98.6246 27.8932 98.6246 26.3159ZM119.031 38.3428C115.384 38.3757 113.051 36.0754 113.051 26.3159C113.051 25.8887 113.182 20.664 113.938 15.7021C113.215 15.8664 112.525 16.0307 111.966 16.0964C111.408 16.0964 109.107 16.0635 107.497 16.0635V16.1621C108.483 16.5564 109.896 17.1151 110.52 17.3122C110.126 21.0911 110.027 25.4616 110.027 26.3159C110.027 31.475 110.159 35.9111 112.591 38.0471C113.412 38.77 114.661 39.23 115.877 39.23C117.191 39.23 118.407 38.9671 119.031 38.5071V38.3428ZM120.641 26.3159C120.641 27.0717 120.313 38.5728 120.28 39.0986C120.641 39.0329 121.463 38.8357 121.857 38.7371C122.679 38.77 125.57 38.9343 126.819 39V38.9014C126.096 38.54 124.354 37.7842 123.664 37.5213C123.632 35.8454 123.5 26.8746 123.5 26.3159C123.5 25.7573 123.96 16.195 123.993 15.2092C123.533 15.3735 122.941 15.5049 122.744 15.5706C122.12 15.5706 118.44 15.6363 117.421 15.5706V15.6692C118.012 15.8664 119.853 16.425 120.51 16.6221C120.543 18.068 120.641 25.593 120.641 26.3159ZM141.767 30.6535C141.438 31.935 140.157 36.6998 139.992 37.2584C139.302 37.4884 135.293 38.6057 134.406 38.8357V38.9671C135.326 39 140.781 39.0986 141.34 39.0986C141.405 38.2114 141.865 31.0478 141.865 30.6535H141.767ZM126.815 14.9134C127.473 15.1106 129.379 15.8006 129.937 15.9649C129.97 17.4108 130.299 25.1658 130.299 26.3159C130.299 28.3533 130.101 36.5355 130.101 37.6199C129.609 37.8828 128.196 38.5728 127.473 38.9343V39.0329C128.524 39 131.547 38.9014 131.909 38.9014C132.237 38.9343 132.96 39 133.453 39.0329C133.387 37.817 133.19 27.466 133.19 26.2831C133.19 25.4616 133.552 15.9321 133.65 14.6177L130.923 14.9463C129.839 14.9134 128.064 14.8477 126.815 14.7491V14.9134ZM157.331 30.6535C157.002 31.935 155.72 36.6998 155.556 37.2584C154.866 37.4884 150.857 38.6057 149.97 38.8357V38.9671C150.89 39 156.345 39.0986 156.903 39.0986C156.969 38.2114 157.429 31.0478 157.429 30.6535H157.331ZM142.379 14.9134C143.036 15.1106 144.942 15.8006 145.501 15.9649C145.534 17.4108 145.862 25.1658 145.862 26.3159C145.862 28.3533 145.665 36.5355 145.665 37.6199C145.172 37.8828 143.759 38.5728 143.036 38.9343V39.0329C144.088 39 147.111 38.9014 147.472 38.9014C147.801 38.9343 148.524 39 149.017 39.0329C148.951 37.817 148.754 27.466 148.754 26.2831C148.754 25.4616 149.115 15.9321 149.214 14.6177L146.487 14.9463C145.402 14.9134 143.628 14.8477 142.379 14.7491V14.9134ZM168.984 21.6169L169.608 14.2562L168.097 14.9463C167.637 15.0777 165.402 15.472 164.351 15.6692L164.383 15.8006L167.768 16.3593L168.885 21.6169H168.984ZM163.496 16.0307C161.689 16.655 159.323 18.1009 159.323 21.5183C159.323 24.8044 163.036 27.7946 163.956 28.6162C164.581 29.1748 167.177 31.3436 167.177 34.4981C167.177 36.404 166.454 37.8828 164.646 38.6714V38.77C169.05 38.3428 170.003 34.4324 170.003 32.3622C170.003 29.8648 168.754 28.2875 166.914 26.5131C163.759 23.4571 161.952 21.9127 161.952 19.8753C161.952 18.1994 162.675 17.0493 163.496 16.1292V16.0307ZM158.567 40.4459L159.684 39.6901L163.923 39V38.9014L160.309 38.2114L158.797 32.1651H158.666L158.567 40.4459ZM171.431 22.7342C171.956 20.9597 172.679 18.4623 173.172 16.7864C173.632 16.6221 175.242 16.1292 176.228 15.8335V15.7021C175.242 15.6692 173.599 15.6035 172.482 15.5049C172.252 15.4063 171.661 15.1434 171.332 14.9791C171.332 15.8335 171.398 19.8753 171.299 22.7342H171.431ZM180.467 26.3159C180.467 25.6259 180.927 16.5893 180.96 15.5706C180.106 15.6363 179.613 15.6692 179.481 15.6692H177.378C177.411 16.7864 177.477 25.4944 177.477 26.3159C177.477 26.9403 177.181 36.5355 177.148 37.7513C176.655 38.0471 175.571 38.6057 175.012 38.9343V39.0329C176.097 39 178.66 38.8357 179.317 38.8028C180.007 38.8357 182.045 38.9671 184.016 39.1643V39.0329C183.063 38.6057 181.19 37.9485 180.566 37.7184C180.533 36.0426 180.467 27.0717 180.467 26.3159ZM185.232 16.7536C185.561 17.9694 186.316 20.8611 186.809 22.7013H186.941C186.941 19.6782 186.974 15.8006 186.974 14.9791C186.678 15.1434 185.988 15.4392 185.692 15.5706C184.443 15.6363 183.195 15.6692 181.946 15.7021V15.8335L185.232 16.7536ZM201.569 39.6572L201.602 31.6064H201.503C201.01 33.7752 200.517 35.944 199.926 38.1456C199.433 38.3428 198.94 38.54 198.414 38.7043V38.8028L200.715 39.1643L201.569 39.6572ZM188.228 27.7946C188.228 34.8925 191.974 39 196.508 39C196.804 39 197.231 38.9671 197.494 38.9343V38.8028C193.222 38.2114 191.744 32.2308 191.744 27.7946C191.744 23.1942 193.321 16.4578 197.593 15.5706V15.4392C191.415 15.6363 188.228 21.6498 188.228 27.7946ZM201.536 23.6871L202.029 14.0262L201.076 14.8477C200.255 15.1106 199.334 15.3406 198.48 15.5706V15.6363L200.287 16.2278C200.715 18.6923 201.076 21.1569 201.47 23.6871H201.536ZM210.029 27.0389C211.113 28.2875 220.38 40.4459 221.135 41.3988L221.398 41.1031C220.577 39.4929 214.235 26.9074 212.789 24.0814C213.972 22.7342 218.342 17.5422 219 16.7536C219.262 16.5564 219.985 16.0307 220.478 15.6692V15.5706C219.492 15.6692 218.375 15.7349 218.211 15.7349C217.849 15.7349 214.136 15.6035 213.413 15.5706V15.7021C214.695 16.0964 215.582 16.3593 216.601 16.6221C216.141 17.3779 211.08 25.4616 210.029 26.9074V27.0389ZM203.062 15.7349C203.72 15.8664 205.593 16.5893 206.217 16.7864C206.283 18.068 206.348 25.5601 206.348 26.3159C206.348 27.2689 206.053 36.6012 205.987 37.9485C205.56 38.1456 204.541 38.6057 203.884 38.9343V39.0329C204.935 39 207.761 38.8028 208.123 38.8028C208.813 38.8357 210.423 38.9671 212.362 39.1643V39.0329C211.442 38.6714 210.029 38.0471 209.437 37.7513C209.404 36.2069 209.207 27.6632 209.207 26.2831C209.207 25.2644 209.601 16.3593 209.667 15.242C208.911 15.4392 208.32 15.6035 208.123 15.6363C207.268 15.6692 204.607 15.6692 203.062 15.6035V15.7349ZM109.501 66.006C109.501 62.0628 108.253 58.0209 105.328 55.9179C103.849 54.8664 101.582 54.2749 100.005 54.4392V54.5706C103.948 55.6221 106.051 60.3212 106.051 66.1046C106.051 72.9395 103.784 77.2114 100.136 77.8028V77.9343C100.531 78 100.925 78.0329 101.286 78.0329C102.962 78.0329 104.737 77.3757 105.854 76.2584C108.45 73.6624 109.501 69.9492 109.501 66.006ZM97.4417 77.77L98.8547 77.9343C98.7232 75.3055 98.4603 66.8275 98.4603 65.3159C98.4603 64.2315 98.8218 58.2838 99.019 54.3406C98.2303 54.4392 96.8173 54.6692 96.4559 54.7021L92.5126 54.472V54.6363C93.4984 54.9649 94.4514 55.3593 95.47 55.6879C95.5029 57.1337 95.6343 63.9029 95.6343 65.3159C95.6343 66.6632 95.4043 73.4324 95.3057 76.8828C94.7471 77.1456 93.8928 77.5728 93.1698 77.9014V78L97.4417 77.77ZM123.995 62.3256C123.995 61.0112 124.291 56.0165 124.356 54.3735C123.502 54.4392 119.033 54.8335 118.014 54.8664V54.9649L122.483 56.2465C122.615 56.8708 123.666 61.307 123.896 62.3256H123.995ZM121.859 72.118C121.859 68.6677 121.892 65.1516 122.056 61.7013H121.925C121.563 62.9829 121.202 64.1658 120.906 64.9216C119.986 65.2831 118.014 66.006 117.39 66.1703V66.3017L120.709 67.189C120.84 67.7147 121.399 70.5407 121.76 72.118H121.859ZM125.671 70.3436C125.408 71.3622 124.389 74.9769 124.126 76.0284C123.009 76.357 120.084 77.2114 117.751 77.8357V77.9671C121.366 78 123.502 78 125.441 78.0657C125.605 74.8454 125.671 73.5639 125.802 70.3436H125.671ZM116.338 65.3159C116.338 63.4429 116.766 55.5236 116.831 54.5049C116.043 54.6363 114.728 54.8335 114.268 54.8664C114.038 54.8664 113.512 54.8335 112.822 54.8006C112.165 54.7349 111.311 54.6692 110.358 54.6363V54.7349C111.114 55.0307 112.691 55.6221 113.282 55.8522C113.315 57.298 113.48 64.5601 113.48 65.3159C113.48 66.1374 113.184 75.6998 113.118 76.9485C112.625 77.1456 111.344 77.7043 110.686 77.9343V78.0329C111.574 78 114.728 77.8357 115.254 77.8028C115.484 77.8357 116.141 77.9343 116.667 77.9671C116.634 76.6527 116.338 67.8133 116.338 65.3159ZM136.879 72.0851H136.912C137.471 70.5736 142.433 56.4108 142.991 54.9321L143.615 53.9463C142.958 54.012 142.104 54.1106 141.677 54.1434C141.414 54.1434 138.654 54.0777 138.062 54.012V54.1434C138.785 54.4063 139.639 54.8335 140.297 55.0635C139.804 57.298 137.043 70.2778 136.715 71.4937L136.879 72.0851ZM134.283 78.9201C135.006 77.2442 135.696 75.4698 136.189 74.2539C135.762 72.8081 133.889 66.2689 133.626 65.3159C133.133 63.4758 131.621 57.298 131.26 55.9179C131.72 55.6879 132.87 55.0964 133.396 54.8006V54.6692C132.41 54.8006 130.439 54.8664 129.781 54.8664C129.518 54.8664 128.697 54.8335 127.81 54.8006C126.922 54.7349 126.002 54.7021 125.542 54.6692V54.8006C126.265 55.0964 127.218 55.5893 127.645 55.8193C127.843 56.3779 130.241 64.2315 130.57 65.3159C131.227 67.5833 133.79 77.2442 134.185 78.9201H134.283ZM157.529 62.3256C157.529 61.0112 157.825 56.0165 157.89 54.3735C157.036 54.4392 152.567 54.8335 151.548 54.8664V54.9649L156.017 56.2465C156.149 56.8708 157.2 61.307 157.43 62.3256H157.529ZM155.393 72.118C155.393 68.6677 155.426 65.1516 155.59 61.7013H155.459C155.097 62.9829 154.736 64.1658 154.44 64.9216C153.52 65.2831 151.548 66.006 150.924 66.1703V66.3017L154.243 67.189C154.374 67.7147 154.933 70.5407 155.294 72.118H155.393ZM159.205 70.3436C158.942 71.3622 157.923 74.9769 157.66 76.0284C156.543 76.357 153.619 77.2114 151.286 77.8357V77.9671C154.9 78 157.036 78 158.975 78.0657C159.139 74.8454 159.205 73.5639 159.336 70.3436H159.205ZM149.873 65.3159C149.873 63.4429 150.3 55.5236 150.365 54.5049C149.577 54.6363 148.262 54.8335 147.802 54.8664C147.572 54.8664 147.047 54.8335 146.356 54.8006C145.699 54.7349 144.845 54.6692 143.892 54.6363V54.7349C144.648 55.0307 146.225 55.6221 146.817 55.8522C146.849 57.298 147.014 64.5601 147.014 65.3159C147.014 66.1374 146.718 75.6998 146.652 76.9485C146.159 77.1456 144.878 77.7043 144.221 77.9343V78.0329C145.108 78 148.262 77.8357 148.788 77.8028C149.018 77.8357 149.675 77.9343 150.201 77.9671C150.168 76.6527 149.873 67.8133 149.873 65.3159ZM174.948 69.6535C174.619 70.935 173.338 75.6998 173.174 76.2584C172.484 76.4884 168.475 77.6057 167.587 77.8357V77.9671C168.507 78 173.962 78.0986 174.521 78.0986C174.587 77.2114 175.047 70.0478 175.047 69.6535H174.948ZM159.997 53.9134C160.654 54.1106 162.56 54.8006 163.118 54.9649C163.151 56.4108 163.48 64.1658 163.48 65.3159C163.48 67.3533 163.283 75.5355 163.283 76.6199C162.79 76.8828 161.377 77.5728 160.654 77.9343V78.0329C161.705 78 164.728 77.9014 165.09 77.9014C165.419 77.9343 166.141 78 166.634 78.0329C166.569 76.817 166.371 66.466 166.371 65.2831C166.371 64.4616 166.733 54.9321 166.832 53.6177L164.104 53.9463C163.02 53.9134 161.245 53.8477 159.997 53.7491V53.9134ZM184.86 78.0986C190.807 76.8499 191.958 69.7192 191.958 64.9873C191.958 60.2226 190.052 53.6177 184.203 53.6177H183.677L183.644 53.7491C188.376 54.7349 188.474 61.767 188.474 65.5788C188.474 71.3951 187.686 76.0941 184.86 77.9671V78.0986ZM184.301 78.5258C180.752 77.3099 180.062 71.0665 180.062 65.776C180.062 63.0814 180.424 55.3593 182.79 54.2749V54.1434C178.222 54.8992 176.579 61.0112 176.579 66.5646C176.579 71.4937 177.861 78.5258 184.235 78.6901L184.301 78.5258ZM200.222 66.5975C200.682 66.8275 201.208 66.8932 201.734 66.8932C204.428 66.8932 207.583 64.3958 207.583 60.2883C207.583 56.5094 204.823 54.472 201.898 54.472C201.438 54.472 200.978 54.5049 200.551 54.6035V54.8006C203.574 55.0635 204.363 57.7909 204.363 60.5183C204.363 62.95 202.917 66.3017 200.222 66.466V66.5975ZM192.697 54.6363C193.387 54.8664 195.195 55.5236 195.786 55.6879C195.819 57.1337 195.983 64.7244 195.983 65.3159C195.983 65.8746 195.687 75.7655 195.622 76.9813C195.096 77.2114 194.176 77.6057 193.519 77.9343V78.0329C194.57 78 197.166 77.8357 197.758 77.8357L202.391 78.0986V78C201.438 77.6714 199.631 76.9813 199.072 76.7513C199.039 75.0754 198.842 65.8417 198.842 65.3159C198.842 64.7573 199.269 55.3264 199.335 54.3406C198.612 54.4392 197.593 54.6363 196.772 54.7021C196.64 54.7021 196.148 54.7021 195.425 54.6692C194.702 54.6363 193.749 54.5706 192.697 54.5049V54.6363ZM221.805 62.3256C221.805 61.0112 222.101 56.0165 222.167 54.3735C221.313 54.4392 216.844 54.8335 215.825 54.8664V54.9649L220.294 56.2465C220.425 56.8708 221.477 61.307 221.707 62.3256H221.805ZM219.67 72.118C219.67 68.6677 219.702 65.1516 219.867 61.7013H219.735C219.374 62.9829 219.012 64.1658 218.717 64.9216C217.797 65.2831 215.825 66.006 215.201 66.1703V66.3017L218.519 67.189C218.651 67.7147 219.21 70.5407 219.571 72.118H219.67ZM223.481 70.3436C223.218 71.3622 222.2 74.9769 221.937 76.0284C220.82 76.357 217.895 77.2114 215.562 77.8357V77.9671C219.177 78 221.313 78 223.251 78.0657C223.416 74.8454 223.481 73.5639 223.613 70.3436H223.481ZM214.149 65.3159C214.149 63.4429 214.576 55.5236 214.642 54.5049C213.853 54.6363 212.539 54.8335 212.079 54.8664C211.849 54.8664 211.323 54.8335 210.633 54.8006C209.976 54.7349 209.121 54.6692 208.168 54.6363V54.7349C208.924 55.0307 210.502 55.6221 211.093 55.8522C211.126 57.298 211.29 64.5601 211.29 65.3159C211.29 66.1374 210.994 75.6998 210.929 76.9485C210.436 77.1456 209.154 77.7043 208.497 77.9343V78.0329C209.384 78 212.539 77.8357 213.065 77.8028C213.295 77.8357 213.952 77.9343 214.478 77.9671C214.445 76.6527 214.149 67.8133 214.149 65.3159ZM230.451 65.053L230.944 54.3735C230.089 54.5049 229.071 54.6692 228.282 54.7021C228.052 54.7021 225.719 54.6035 224.273 54.5049V54.7021C224.93 54.8664 226.803 55.5564 227.395 55.7536C227.428 57.0351 227.592 64.6916 227.592 65.3159C227.592 65.9403 227.296 75.5683 227.231 76.8828L225.127 77.9343V78.0329C226.179 78 228.742 77.8357 229.366 77.8028C230.057 77.8357 232.751 78.0657 233.803 78.1643V78.0329L230.681 76.7513L230.451 65.053ZM231.634 66.7289C233.54 69.1606 240.407 78.5586 241.623 80.0045L241.919 79.8073C241.229 78.2629 235.939 67.0904 235.281 65.5788C236.826 65.1188 239.192 63.5086 239.192 59.8283C239.192 57.1009 236.957 54.5706 233.343 54.5706C232.915 54.5706 232.521 54.6035 232.127 54.6692V54.8006C235.314 55.0635 235.873 57.7909 235.873 59.9597C235.873 63.0814 234.328 65.7103 231.634 66.5975V66.7289Z" fill="#00C4CC"/>
</svg>
